<svg xmlns="http://www.w3.org/2000/svg" width="60" height="60" viewBox="0 0 60 60">
    <defs>
        <linearGradient id="ofxxvqrbna" x1="25.065%" x2="50%" y1="50%" y2="62.5%">
            <stop offset="0%" stop-color="#1A45C2"/>
            <stop offset="100%" stop-color="#001F9C"/>
        </linearGradient>
        <linearGradient id="nwr8vttr9b" x1="50%" x2="74.925%" y1="62.503%" y2="50%">
            <stop offset="0%" stop-color="#001F9C"/>
            <stop offset="100%" stop-color="#1A45C2"/>
        </linearGradient>
    </defs>
    <g fill="none" fill-rule="evenodd">
        <g>
            <g>
                <g>
                    <g>
                        <path fill="url(#ofxxvqrbna)" d="M45 15L29.95 30.096 15.039 45 -15 15z" transform="translate(-150 -209) translate(24 185) translate(126 24) matrix(0 1 1 0 -15 15)"/>
                        <path fill="url(#nwr8vttr9b)" d="M67.499 37.499L52.499 52.501 37.499 37.499z" transform="translate(-150 -209) translate(24 185) translate(126 24) rotate(90 52.5 45)"/>
                        <path fill="#1A45C2" d="M67.504 37.504L52.504 52.496 7.504 7.504 37.504 7.504z" transform="translate(-150 -209) translate(24 185) translate(126 24) rotate(90 37.504 30)"/>
                    </g>
                </g>
            </g>
        </g>
    </g>
</svg>
